<svg xmlns="http://www.w3.org/2000/svg" version="1.1" xmlns:xlink="http://www.w3.org/1999/xlink" xmlns:svgjs="http://svgjs.dev/svgjs" width="100%" height="100%" viewBox="0 0 1000 600"><rect width="1000" height="600" x="0" y="0" fill="White"/><g><circle r="166.66666666666666" cx="260.1495463053385" cy="282.37177453168493" fill="Black" transform="matrix(1.3371430245655451,0,0,1.3371430245655451,0,-77.57144515537978)"/><path d="M262.8885369683062 357.37174555861L262.8885369683062 357.37174555861Q244.22565703348488 357.37174555861 229.86066023718055 349.00829728906353Q215.4956634408762 340.644849019517 207.4032528467317 324.34386882748436Q199.3495619205018 308.00416896753705 199.3495619205018 284.61748954713863L199.3495619205018 284.61748954713863Q199.3495619205018 267.5808356647292 204.22824007773724 253.5255962117414Q209.10691823497265 239.43163709083905 217.85756318366478 229.13220542556425Q226.64692780027147 218.79405409237486 238.65002485378724 213.10226290893354Q250.61440223938843 207.37175205757762 265.405315382753 207.37175205757762L265.405315382753 207.37175205757762Q277.4084124362687 207.37175205757762 290.34078151973415 212.52146789021504Q303.311870271114 217.70990339076698 313.65002160430345 229.94531845177016L313.65002160430345 229.94531845177016Q316.7088753695542 233.8560049111414 316.01192134709197 236.9148586763922Q315.31496732462983 240.01243210955755 312.25611355937906 243.34232355021032L312.25611355937906 243.34232355021032Q308.61646477540967 246.9819723341796 305.40273233850064 247.79508536038549Q302.1889999015916 248.646918054506 298.85910846093884 245.85910196465716L298.85910846093884 245.85910196465716Q291.3474928855129 239.43163709083905 283.79715764217235 234.5529589336036Q276.2855420667463 229.6742807763682 264.2824450132306 229.6742807763682L264.2824450132306 229.6742807763682Q255.10588371747818 229.6742807763682 247.43938947039393 233.43008856408116Q239.7728952233097 237.22461601970872 234.5844597227577 244.31031524807452Q229.4347438901203 251.43473414435482 226.64692780027147 261.19209045882565Q223.85911171042267 270.94944677329653 223.85911171042267 283.22358150221424L223.85911171042267 283.22358150221424Q223.85911171042267 299.3696830225887 228.6216308639144 310.9468637290442Q233.34543034949158 322.5240444354997 242.13479496609827 328.7966306376595Q250.92415958270496 335.06921683981943 263.4693319870247 335.06921683981943L263.4693319870247 335.06921683981943Q272.645893282777 335.06921683981943 279.1895171603388 332.1265220783123Q285.77186070581524 329.22254698471977 291.0377355421963 324.34386882748436Q296.34233004649195 319.46519067024894 301.9179622261896 313.0377257964308L301.9179622261896 313.0377257964308Q304.9768159914404 309.70783435577806 308.3454271000078 309.97887203118Q311.67531854066044 310.249909706582 315.5860050000317 313.3087634718328L315.5860050000317 313.3087634718328Q319.496691459403 316.36761723708355 320.6195618289255 319.3103119985907Q321.7037125305334 322.2530067600977 319.225653784001 325.8539358761525L319.225653784001 325.8539358761525Q311.67531854066044 337.0052002355477 302.34387857324987 343.97474046016976Q293.0124386058392 350.9442806847918 282.98404461596635 354.15801312170083Q272.916930958179 357.37174555861 262.8885369683062 357.37174555861Z " fill="#ffe8f5" transform="matrix(1.3371430245655451,0,0,1.3371430245655451,0,-77.57144515537978)"/><path d="M581.623892264126 357.37175779496897L581.623892264126 357.37175779496897Q545.8867151073143 357.37175779496897 527.9379983290053 338.30124621801554Q510.14953795050246 319.2307346410622 510.14953795050246 282.3717626856061L510.14953795050246 282.3717626856061Q510.14953795050246 244.23073953169938 527.9379983290053 225.80125355397138Q545.8867151073143 207.37176757624331 581.623892264126 207.37176757624331L581.623892264126 207.37176757624331Q618.6431206193886 207.37176757624331 636.4315809978912 225.80125355397138Q654.3802977762002 244.23073953169938 654.3802977762002 282.3717626856061L654.3802977762002 282.3717626856061Q654.3802977762002 319.2307346410622 636.4315809978912 338.30124621801554Q618.6431206193886 357.37175779496897 581.623892264126 357.37175779496897Z " fill="White" transform="matrix(1.3371430245655451,0,0,1.3371430245655451,0,-77.57144515537978)"/></g></svg>