<svg xmlns="http://www.w3.org/2000/svg" version="1.1" xmlns:xlink="http://www.w3.org/1999/xlink" xmlns:svgjs="http://svgjs.dev/svgjs" width="100%" height="100%" viewBox="0 0 1000 600"><rect width="1000" height="600" x="0" y="0" fill="white"/><g><circle r="166.66666666666666" cx="316.34879557291663" cy="338.571045311934" fill="Dark" transform="matrix(0.8351026935731753,0,0,0.8351026935731751,0,17.25838676142361)"/><path d="M319.0877823676972 413.57096363456856L319.0877823676972 413.57096363456856Q300.4249024328759 413.57096363456856 286.05990563657167 405.2075153650221Q271.6949088402673 396.84406709547557 263.60249824612276 380.54308690344294Q255.54880731989286 364.2033870434957 255.54880731989286 340.8167076230973L255.54880731989286 340.8167076230973Q255.54880731989286 323.7800537406878 260.42748547712836 309.72481428770004Q265.30616363436377 295.6308551667977 274.05680858305584 285.33142350152286Q282.84617319966253 274.9932721683335 294.84927025317836 269.3014809848921Q306.81364763877946 263.5709701335362 321.60456078214406 263.5709701335362L321.60456078214406 263.5709701335362Q333.6076578356598 263.5709701335362 346.54002691912524 268.7206859661736Q359.5111156705051 273.9091214667256 369.84926700369454 286.14453652772875L369.84926700369454 286.14453652772875Q372.9081207689453 290.0552229871 372.21116674648306 293.1140767523508Q371.5142127240209 296.2116501855162 368.45535895877003 299.54154162616896L368.45535895877003 299.54154162616896Q364.81571017480076 303.18119041013824 361.60197773789173 303.9943034363441Q358.3882453009827 304.84613613046463 355.05835386032993 302.05832004061574L355.05835386032993 302.05832004061574Q347.5467382849039 295.6308551667977 339.9964030415633 290.7521770095622Q332.4847874661374 285.8734988523268 320.4816904126217 285.8734988523268L320.4816904126217 285.8734988523268Q311.30512911686924 285.8734988523268 303.63863486978505 289.6293066400398Q295.97214062270075 293.4238340956673 290.78370512214883 300.5095333240331Q285.6339892895114 307.6339522203134 282.84617319966253 317.39130853478423Q280.05835710981376 327.14866484925517 280.05835710981376 339.4227995781729L280.05835710981376 339.4227995781729Q280.05835710981376 355.56890109854726 284.8208762633054 367.14608180500284Q289.5446757488827 378.7232625114583 298.3340403654894 384.9958487136181Q307.1234049820961 391.268434915778 319.6685773864157 391.268434915778L319.6685773864157 391.268434915778Q328.8451386821681 391.268434915778 335.3887625597299 388.3257401542709Q341.97110610520633 385.42176506067835 347.2369809415874 380.54308690344294Q352.54157544588304 375.6644087462075 358.1172076255807 369.23694387238936L358.1172076255807 369.23694387238936Q361.1760613908315 365.9070524317367 364.54467249939876 366.1780901071386Q367.87456394005153 366.4491277825406 371.7852503994228 369.50798154779136L371.7852503994228 369.50798154779136Q375.6959368587941 372.56683531304213 376.8188072283165 375.5095300745493Q377.90295792992436 378.4522248360563 375.4248991833921 382.0531539521111L375.4248991833921 382.0531539521111Q367.87456394005153 393.2044183115063 358.54312397264096 400.17395853612834Q349.21168400523027 407.1434987607504 339.18329001535744 410.3572311976594Q329.11617635757 413.57096363456856 319.0877823676972 413.57096363456856Z " fill="White" transform="matrix(0.8351026935731753,0,0,0.8351026935731751,0,17.25838676142361)"/><path d="M571.4760202335689 369.3182179406682L571.4760202335689 369.3182179406682Q566.3487835210659 369.3182179406682 566.3487835210659 366.05101978317407L566.3487835210659 366.05101978317407L566.3487835210659 268.92465871509523Q566.3487835210659 267.30723388465265 567.6912461303333 266.5470442143446Q569.0337087396006 265.7868545440366 571.5892399716998 265.7868545440366L571.5892399716998 265.7868545440366L593.7156116521548 265.7868545440366Q605.3610704313417 265.7868545440366 613.1570581140751 268.34238577613587Q620.9692200451128 270.9140912565397 624.9804336246106 276.4942069215667Q629.0078214524127 282.0904968348981 629.0078214524127 291.2936441201166L629.0078214524127 291.2936441201166Q629.0078214524127 300.25417768076863 625.6274035567876 306.48126327797274Q622.2469856611625 312.72452312348116 616.7800897342665 316.6710397097612Q611.297019559066 320.63373054434555 604.7787974923823 322.9142995552696Q598.2605754256987 325.17869431788927 591.8555730971458 326.230020457677L591.8555730971458 326.230020457677Q587.537048799864 326.8122933966364 583.5905322135841 327.103429866116Q579.6278413789997 327.39456633559564 576.6032569460721 327.39456633559564L576.6032569460721 327.39456633559564L576.6032569460721 366.05101978317407Q576.6032569460721 367.6846188619212 575.309317081718 368.4933312771425Q574.0315514656683 369.3182179406682 571.4760202335689 369.3182179406682ZM576.6032569460721 275.103221567386L576.6032569460721 318.19141905037725Q578.8029547154739 318.19141905037725 581.30996320266 318.0781993122463Q583.8169716898461 317.9649795741153 586.5018969083808 317.6738431046356Q589.1706478786111 317.38270663515596 591.8555730971458 317.0268731724585L591.8555730971458 317.0268731724585Q598.4870149019606 315.8623272945399 604.6008807610336 313.0641823378742Q610.7147466201067 310.26603738120843 614.6127404614734 305.0255809305744Q618.5269085511445 299.78512447994024 618.5269085511445 291.40686385824756L618.5269085511445 291.40686385824756Q618.5269085511445 285.4709147305232 615.7287635944789 281.91258010354943Q612.9306186378132 278.3704197248801 607.3990257176994 276.7368206461331Q601.8674327975856 275.103221567386 593.7156116521548 275.103221567386L593.7156116521548 275.103221567386L576.6032569460721 275.103221567386ZM667.6642748999911 369.90049087962757L667.6642748999911 369.90049087962757Q659.8682872172577 369.90049087962757 653.7544213581847 365.9378000450431Q647.6405554991115 361.97510921045875 644.1469178653555 354.93931119803335Q640.6532802315995 347.8873389373035 640.6532802315995 338.57097191395417L640.6532802315995 338.57097191395417Q640.6532802315995 331.696916384573 642.6265385247394 325.98740673311056Q644.5997968178795 320.29407132995266 648.2713511829842 316.08876677080184Q651.9429055480889 311.89963645995545 656.8275285360256 309.5705447041181Q661.7283257722668 307.24145294828077 667.6642748999911 307.24145294828077L667.6642748999911 307.24145294828077Q675.4602625827245 307.24145294828077 681.5256056968842 311.2688407760828Q687.5747745627398 315.28005435558055 691.0684121964957 322.33202661631026Q694.5620498302517 329.36782462873566 694.5620498302517 338.4577521758232L694.5620498302517 338.4577521758232Q694.5620498302517 343.9246481027192 693.2842842142022 348.69605135252493Q692.0065185981525 353.483628850635 689.6127298490974 357.38162269200177Q687.2351153483467 361.2796165333684 683.9032201976349 364.07776149003416Q680.5874992952276 366.8759064466999 676.463065977599 368.3801115390115Q672.3224584116658 369.90049087962757 667.6642748999911 369.90049087962757ZM667.6642748999911 360.5841238562781L667.6642748999911 360.5841238562781Q671.5137459964446 360.5841238562781 674.5383304293723 359.0152217707488Q677.5629148623 357.43014543691504 679.7787868800062 354.51878074211834Q681.9946588977127 351.60741604732164 683.1592047756312 347.5315054746062Q684.32375065355 343.4555949018908 684.32375065355 338.4577521758232L684.32375065355 338.4577521758232Q684.32375065355 331.81013612270397 682.2857953671923 326.86081614154966Q680.2478400808347 321.91149616039525 676.5115887225122 319.2427451901649Q672.7915116124941 316.5578199716301 667.6642748999911 316.5578199716301L667.6642748999911 316.5578199716301Q663.944197789973 316.5578199716301 660.7902193706101 318.0781993122463Q657.6524151995513 319.5824044045579 655.436543181845 322.5584660925723Q653.2206711641386 325.5345277805867 652.05612528622 329.5457413600843Q650.8915794083013 333.55695493958206 650.8915794083013 338.57097191395417L650.8915794083013 338.57097191395417Q650.8915794083013 345.20241371876887 652.9942316878765 350.1517336999233Q655.0807097191476 355.1010536810776 658.81696107747 357.85067589283005Q662.537038187488 360.5841238562781 667.6642748999911 360.5841238562781ZM717.6265279123634 369.43143767879917L717.6265279123634 369.43143767879917Q715.184216418395 369.43143767879917 713.9549735472588 368.67124800849115Q712.7257306761223 367.9110583381831 712.7257306761223 366.4068532458715L712.7257306761223 366.4068532458715L712.7257306761223 310.7350905820367Q712.7257306761223 309.2308854897251 713.9549735472588 308.4706958194171Q715.184216418395 307.71050614910905 717.6265279123634 307.71050614910905L717.6265279123634 307.71050614910905Q720.1820591444628 307.71050614910905 721.4598247605124 308.4706958194171Q722.7537646248666 309.2308854897251 722.7537646248666 310.7350905820367L722.7537646248666 310.7350905820367L722.7537646248666 321.2160034833049Q724.6138031798755 317.72236584954885 726.829675197582 315.1021376242318Q729.0293729669838 312.4819093989148 731.4878587092567 310.7350905820367Q733.9301702032249 308.98827176515874 736.437178690411 308.11486235671975Q738.9280129292927 307.24145294828077 741.4997184096965 307.24145294828077L741.4997184096965 307.24145294828077Q744.297863366362 307.24145294828077 746.9180915916791 308.11486235671975Q749.5383198169961 308.98827176515874 750.8160854330458 310.15281764307747L750.8160854330458 310.15281764307747Q751.9806313109646 311.09092404473415 752.1585480423132 312.25546992265276Q752.3202905253574 313.4200158005715 751.1557446474387 315.5064938318425L751.1557446474387 315.5064938318425Q750.2338124940866 317.25331264872045 748.9560468780369 317.78706284276655Q747.6621070136828 318.3046387885082 746.0446821832402 317.72236584954885L746.0446821832402 317.72236584954885Q744.6375225807551 317.25331264872045 743.2465372265744 316.91365343432756Q741.8393776240894 316.5578199716301 739.9793390690804 316.5578199716301L739.9793390690804 316.5578199716301Q737.537027575112 316.5578199716301 735.0300190879259 317.8355855876798Q732.5230106007398 319.12952545203393 730.2586158381202 321.6850566841333Q727.9942210755005 324.2405879162326 726.0694855272739 327.976839274555Q724.1447499790472 331.696916384573 722.7537646248666 336.3550998962478L722.7537646248666 336.3550998962478L722.7537646248666 366.4068532458715Q722.7537646248666 367.9110583381831 721.4598247605124 368.67124800849115Q720.1820591444628 369.43143767879917 717.6265279123634 369.43143767879917ZM782.4852636131122 369.6578771550611L782.4852636131122 369.6578771550611Q777.8270801014376 369.6578771550611 774.6892759303787 367.86253559326985Q771.5352975110156 366.05101978317407 769.9663954254863 362.6706018875491Q768.397493339957 359.3063582402284 768.397493339957 354.51878074211834L768.397493339957 354.51878074211834L768.397493339957 318.7736919893366L759.436959779305 318.7736919893366Q757.690140962427 318.7736919893366 756.9299512921189 317.72236584954885Q756.169761621811 316.6710397097612 756.169761621811 314.1155084776618L756.169761621811 314.1155084776618Q756.169761621811 311.43058325912705 756.9299512921189 310.4439541125571Q757.690140962427 309.45732496598714 759.436959779305 309.45732496598714L759.436959779305 309.45732496598714L768.397493339957 309.45732496598714L768.397493339957 285.6973542067851Q768.397493339957 284.1931491144735 769.6267362110934 283.4329594441655Q770.8398048339254 282.67276977385745 773.4115103143292 282.67276977385745L773.4115103143292 282.67276977385745Q775.9670415464284 282.67276977385745 777.2448071624781 283.4329594441655Q778.5225727785278 284.1931491144735 778.5225727785278 285.6973542067851L778.5225727785278 285.6973542067851L778.5225727785278 309.45732496598714L793.2087902389467 309.45732496598714Q794.9556090558247 309.45732496598714 795.6996244778284 310.4439541125571Q796.4598141481363 311.43058325912705 796.4598141481363 314.1155084776618L796.4598141481363 314.1155084776618Q796.4598141481363 316.6710397097612 795.6996244778284 317.72236584954885Q794.9556090558247 318.7736919893366 793.2087902389467 318.7736919893366L793.2087902389467 318.7736919893366L778.5225727785278 318.7736919893366L778.5225727785278 353.483628850635Q778.5225727785278 357.43014543691504 779.6385959115332 359.12844150887975Q780.7384447962343 360.81056333254 783.423370014769 360.81056333254L783.423370014769 360.81056333254Q785.9789012468682 360.81056333254 787.9683337883127 359.41957797835937Q789.9415920814527 358.0124183758743 792.044244361028 355.570106881906L792.044244361028 355.570106881906Q793.2087902389467 354.2923412658563 794.3733361168654 354.51878074211834Q795.5378819947841 354.7613944666847 796.7024278727026 355.68332662003695L796.7024278727026 355.68332662003695Q798.2066329650145 356.7346527598247 798.3845496963631 357.963895630961Q798.5624664277118 359.176964253793 797.9801934887523 360.22829039358066L797.9801934887523 360.22829039358066Q796.1201549337434 363.60870828920577 793.6131464465573 365.7113605687812Q791.1061379593714 367.79783860005216 788.3079930027056 368.73594500170884Q785.5098480460399 369.6578771550611 782.4852636131122 369.6578771550611ZM810.2079252068986 413.5709613015781L810.2079252068986 413.5709613015781Q807.1833407739709 413.5709613015781 804.3204988240875 412.58433215500804Q801.4738311225085 411.58152876013366 799.257959104802 409.7861871983423Q797.0420870870958 407.97467138824663 795.7643214710461 405.53235989427833L795.7643214710461 405.53235989427833Q794.9556090558247 403.8987608155312 795.5864047396974 402.50777546135055Q796.2333746718743 401.1006158588656 798.0934132268835 399.93606998094685L798.0934132268835 399.93606998094685Q799.7270123056305 398.90091808946363 800.891558183549 398.9494408343769Q802.0561040614677 399.0141378275946 803.3338696775174 400.40512318177525L803.3338696775174 400.40512318177525Q805.3071279706576 402.3945557232196 807.1833407739709 403.6076243460516Q809.0433793289799 404.836867217188 811.2592513466861 404.836867217188L811.2592513466861 404.836867217188Q814.283835779614 404.836867217188 815.3351619194016 402.55629820626393Q816.3703138108849 400.2919034436442 816.3703138108849 396.9114855480192L816.3703138108849 396.9114855480192L816.3703138108849 318.7736919893366L806.4716738485761 318.7736919893366Q805.0806884943954 318.7736919893366 804.2719760791742 317.6091461114179Q803.4470894156484 316.44460023349916 803.4470894156484 314.1155084776618L803.4470894156484 314.1155084776618Q803.4470894156484 311.7864167218245 804.2072790859565 310.62187084390575Q804.9674687562645 309.45732496598714 806.3584541104451 309.45732496598714L806.3584541104451 309.45732496598714L816.3703138108849 309.45732496598714L816.3703138108849 283.1418229746858Q816.3703138108849 276.1545477071737 819.0552390294197 271.83602340989194Q821.7401642479545 267.5336733609146 825.8645975655832 265.5604150677746Q830.0052051315163 263.5709825263302 834.5501689050598 263.5709825263302L834.5501689050598 263.5709825263302Q840.2435043082178 263.5709825263302 844.2061951428022 265.67363480590564Q848.1688859773867 267.76011283717656 850.7244172094861 270.4450380557113L850.7244172094861 270.4450380557113Q852.0183570738402 271.72280367176097 851.6625236111427 273.06526628102836Q851.3066901484453 274.40772889029574 850.0289245323956 275.79871424447634L850.0289245323956 275.79871424447634Q848.524719440084 277.31909358509245 847.1822568308166 277.5455330613544Q845.8397942215493 277.78814678592073 844.4488088673686 276.85004038426405L844.4488088673686 276.85004038426405Q841.877103386965 274.990001829255 839.8391481006072 273.93867568946735Q837.8011928142496 272.88734954967964 834.8898281194529 272.88734954967964L834.8898281194529 272.88734954967964Q831.1697510094348 272.88734954967964 828.7759622603799 275.103221567386Q826.3983477596291 277.31909358509245 826.3983477596291 283.8373156517761L826.3983477596291 283.8373156517761L826.3983477596291 309.45732496598714L841.4080501861365 309.45732496598714Q844.2061951428022 309.45732496598714 844.2061951428022 314.1155084776618L844.2061951428022 314.1155084776618Q844.2061951428022 316.44460023349916 843.4460054724943 317.6091461114179Q842.7019900504906 318.7736919893366 841.4080501861365 318.7736919893366L841.4080501861365 318.7736919893366L826.3983477596291 318.7736919893366L826.3983477596291 396.9114855480192Q826.3983477596291 403.203268138441 824.1824757419226 406.8101255103279Q821.9666037242164 410.41698288221494 818.2950493591115 412.0020592160488Q814.6234949940069 413.5709613015781 810.2079252068986 413.5709613015781ZM882.6362091141189 369.90049087962757L882.6362091141189 369.90049087962757Q874.8402214313853 369.90049087962757 868.7263555723123 365.9378000450431Q862.6124897132393 361.97510921045875 859.1188520794831 354.93931119803335Q855.6252144457271 347.8873389373035 855.6252144457271 338.57097191395417L855.6252144457271 338.57097191395417Q855.6252144457271 331.696916384573 857.598472738867 325.98740673311056Q859.5879052803116 320.29407132995266 863.2432853971118 316.08876677080184Q866.9148397622166 311.89963645995545 871.8156369984576 309.5705447041181Q876.7002599863943 307.24145294828077 882.6362091141189 307.24145294828077L882.6362091141189 307.24145294828077Q890.4483710451566 307.24145294828077 896.4975399110119 311.2688407760828Q902.5467087768673 315.28005435558055 906.0403464106234 322.33202661631026Q909.5339840443794 329.36782462873566 909.5339840443794 338.4577521758232L909.5339840443794 338.4577521758232Q909.5339840443794 343.9246481027192 908.2562184283297 348.69605135252493Q906.97845281228 353.483628850635 904.5846640632251 357.38162269200177Q902.2070495624744 361.2796165333684 898.8913286600671 364.07776149003416Q895.5594335093551 366.8759064466999 891.4350001917267 368.3801115390115Q887.2943926257935 369.90049087962757 882.6362091141189 369.90049087962757ZM882.6362091141189 360.5841238562781L882.6362091141189 360.5841238562781Q886.4856802105721 360.5841238562781 889.5102646435 359.0152217707488Q892.5348490764275 357.43014543691504 894.750721094134 354.51878074211834Q896.9665931118402 351.60741604732164 898.1311389897589 347.5315054746062Q899.2956848676777 343.4555949018908 899.2956848676777 338.4577521758232L899.2956848676777 338.4577521758232Q899.2956848676777 331.81013612270397 897.2577295813201 326.86081614154966Q895.2197742949622 321.91149616039525 891.4835229366399 319.2427451901649Q887.7634458266218 316.5578199716301 882.6362091141189 316.5578199716301L882.6362091141189 316.5578199716301Q878.9161320041007 316.5578199716301 875.7621535847377 318.0781993122463Q872.624349413679 319.5824044045579 870.4084773959726 322.5584660925723Q868.1926053782663 325.5345277805867 867.0280595003476 329.5457413600843Q865.8635136224289 333.55695493958206 865.8635136224289 338.57097191395417L865.8635136224289 338.57097191395417Q865.8635136224289 345.20241371876887 867.9661659020044 350.1517336999233Q870.0688181815797 355.1010536810776 873.7888952915978 357.85067589283005Q877.5089724016157 360.5841238562781 882.6362091141189 360.5841238562781ZM939.2299039313057 369.6578771550611L939.2299039313057 369.6578771550611Q933.2939548035815 369.6578771550611 930.5605068401335 366.52007298400247Q927.8270588766854 363.38226881294383 927.8270588766854 357.43014543691504L927.8270588766854 357.43014543691504L927.8270588766854 267.06462016008624Q927.8270588766854 265.5604150677746 929.0401274995174 264.8002253974666Q930.2693703706536 264.0400357271585 932.711681864622 264.0400357271585L932.711681864622 264.0400357271585Q935.2833873450259 264.0400357271585 936.5611529610755 264.8002253974666Q937.8389185771252 265.5604150677746 937.8389185771252 267.06462016008624L937.8389185771252 267.06462016008624L937.8389185771252 356.15237982086535Q937.8389185771252 358.72408530126904 938.7770249787818 359.7592371927524Q939.6989571321342 360.81056333254 941.2193364727502 360.81056333254L941.2193364727502 360.81056333254Q942.383882350669 360.81056333254 943.1925947658901 360.40620712492944Q944.017481429416 360.00185091731873 944.8261938446371 359.176964253793Q945.6349062598586 358.3682518385717 946.4597929233842 357.43014543691504L946.4597929233842 357.43014543691504Q947.2685053386056 356.62143302169363 948.3198314783933 356.7993497530424Q949.3711576181811 356.97726648439107 950.5357034960996 358.0124183758743L950.5357034960996 358.0124183758743Q951.344415911321 358.8373050394001 951.7487721189316 359.93715392410104Q952.1693025748466 361.0531770571065 951.5870296358873 361.97510921045875L951.5870296358873 361.97510921045875Q950.2930897715332 364.41742070442706 948.3198314783933 366.1157167763919Q946.3465731852532 367.79783860005216 944.017481429416 368.73594500170884Q941.6883896735785 369.6578771550611 939.2299039313057 369.6578771550611ZM973.9398407926042 369.6578771550611L973.9398407926042 369.6578771550611Q968.0038916648798 369.6578771550611 965.2704437014318 366.52007298400247Q962.5208214896793 363.38226881294383 962.5208214896793 357.43014543691504L962.5208214896793 357.43014543691504L962.5208214896793 310.7350905820367Q962.5208214896793 309.2308854897251 963.7500643608157 308.4706958194171Q964.9793072319521 307.71050614910905 967.4216187259206 307.71050614910905L967.4216187259206 307.71050614910905Q969.9771499580199 307.71050614910905 971.2549155740694 308.4706958194171Q972.5488554384235 309.2308854897251 972.5488554384235 310.7350905820367L972.5488554384235 310.7350905820367L972.5488554384235 356.15237982086535Q972.5488554384235 358.72408530126904 973.4707875917759 359.7592371927524Q974.4088939934327 360.81056333254 975.9130990857443 360.81056333254L975.9130990857443 360.81056333254Q977.0776449636628 360.81056333254 977.9025316271886 360.34151013171174Q978.71124404241 359.88863117918777 979.471433712718 359.12844150887975Q980.2316233830261 358.3682518385717 981.1535555363782 357.31692569878396L981.1535555363782 357.31692569878396Q981.7358284753377 356.62143302169363 982.9650713464739 356.9125694911734Q984.1943142176103 357.203705960653 985.0030266328317 358.0124183758743L985.0030266328317 358.0124183758743Q986.1675725107505 358.9505247775311 986.3940119870124 360.1150706554497Q986.6366257115787 361.2796165333684 986.0543527726195 362.2177229350251L986.0543527726195 362.2177229350251Q984.7765871565698 364.54681469086245 982.8518516083429 366.16423952130515Q980.9271160601163 367.79783860005216 978.6627212974968 368.73594500170884Q976.3821522865726 369.6578771550611 973.9398407926042 369.6578771550611ZM967.4216187259206 289.77326477950055L967.4216187259206 289.77326477950055Q964.1544205684265 289.77326477950055 962.5208214896793 287.9779232177092Q960.9033966592367 286.1664074076135 960.9033966592367 282.5595500357265L960.9033966592367 282.5595500357265Q960.9033966592367 278.82329867740407 962.5208214896793 276.963260122395Q964.1544205684265 275.103221567386 967.4216187259206 275.103221567386L967.4216187259206 275.103221567386Q970.6726426351102 275.103221567386 972.2577189689439 276.963260122395Q973.8266210544732 278.82329867740407 973.8266210544732 282.5595500357265L973.8266210544732 282.5595500357265Q974.0530605307351 286.1664074076135 972.3709387070749 287.9779232177092Q970.6726426351102 289.77326477950055 967.4216187259206 289.77326477950055ZM1020.877509372049 369.90049087962757L1020.877509372049 369.90049087962757Q1013.065347441011 369.90049087962757 1006.951481581938 365.9378000450431Q1000.8376157228649 361.97510921045875 997.343978089109 354.93931119803335Q993.8503404553528 347.8873389373035 993.8503404553528 338.57097191395417L993.8503404553528 338.57097191395417Q993.8503404553528 331.696916384573 995.8397729967971 325.98740673311056Q997.8130312899373 320.29407132995266 1001.4845856550419 316.08876677080184Q1005.1561400201467 311.89963645995545 1010.0407630080833 309.5705447041181Q1014.9253859960199 307.24145294828077 1020.877509372049 307.24145294828077L1020.877509372049 307.24145294828077Q1028.6734970547823 307.24145294828077 1034.7226659206376 311.2688407760828Q1040.7880090347976 315.28005435558055 1044.2816466685535 322.33202661631026Q1047.7752843023095 329.36782462873566 1047.7752843023095 338.4577521758232L1047.7752843023095 338.4577521758232Q1047.7752843023095 343.9246481027192 1046.4975186862598 348.69605135252493Q1045.203578821906 353.483628850635 1042.8259643211554 357.38162269200177Q1040.4321755721003 361.2796165333684 1037.1164546696928 364.07776149003416Q1033.8007337672852 366.8759064466999 1029.6601262013523 368.3801115390115Q1025.5356928837236 369.90049087962757 1020.877509372049 369.90049087962757ZM1020.877509372049 360.5841238562781L1020.877509372049 360.5841238562781Q1024.7108062201978 360.5841238562781 1027.7353906531257 359.0152217707488Q1030.7761493343578 357.43014543691504 1032.9758471037599 354.51878074211834Q1035.1917191214661 351.60741604732164 1036.3562649993846 347.5315054746062Q1037.5208108773036 343.4555949018908 1037.5208108773036 338.4577521758232L1037.5208108773036 338.4577521758232Q1037.5208108773036 331.81013612270397 1035.4828555909457 326.86081614154966Q1033.4449003045884 321.91149616039525 1029.72482319457 319.2427451901649Q1025.9885718362475 316.5578199716301 1020.877509372049 316.5578199716301L1020.877509372049 316.5578199716301Q1017.1412580137264 316.5578199716301 1014.0034538426678 318.0781993122463Q1010.8494754233047 319.5824044045579 1008.6497776539027 322.5584660925723Q1006.4339056361964 325.5345277805867 1005.2693597582777 329.5457413600843Q1004.104813880359 333.55695493958206 1004.104813880359 338.57097191395417L1004.104813880359 338.57097191395417Q1004.104813880359 345.20241371876887 1006.1912919116301 350.1517336999233Q1008.2939441912054 355.1010536810776 1012.0140213012235 357.85067589283005Q1015.7502726595458 360.5841238562781 1020.877509372049 360.5841238562781Z " fill="#1d1b1b" transform="matrix(0.8351026935731753,0,0,0.8351026935731751,0,17.25838676142361)"/></g></svg>